<svg width="421" height="193" viewBox="0 0 421 193" fill="none" xmlns="http://www.w3.org/2000/svg">
<g filter="url(#filter0_d_2232_34990)">
<g clip-path="url(#clip0_2232_34990)">
<rect x="14" y="10" width="393" height="165" rx="32" fill="#1C4F60"/>
<g opacity="0.6">
<path d="M366.63 147.521C373.23 138.664 385.761 136.835 394.618 143.435L407.591 153.103L398.123 165.809C391.522 174.666 393.352 187.196 402.209 193.796L415.152 203.442L405.679 216.153C399.079 225.01 386.548 226.839 377.692 220.239L367.812 212.876C368.434 212.24 369.023 211.556 369.57 210.823L370.348 209.778L380.082 217.031C387.167 222.312 397.192 220.848 402.472 213.763L409.554 204.259L399.819 197.004C389.19 189.083 386.995 174.047 394.915 163.419L401.994 153.92L392.228 146.642C385.253 141.445 375.43 142.782 370.088 149.583L369.837 149.911L362.881 159.247L361.538 158.246C360.907 157.776 360.256 157.35 359.592 156.965L366.63 147.521ZM357.182 160.199C357.857 160.564 358.514 160.981 359.147 161.453L360.49 162.454L350.896 175.328C345.616 182.413 347.08 192.438 354.165 197.718L367.141 207.388L366.363 208.432C365.813 209.17 365.211 209.844 364.568 210.459L351.775 200.925C342.918 194.325 341.089 181.795 347.689 172.938L357.182 160.199Z" fill="url(#paint0_linear_2232_34990)"/>
</g>
<g opacity="0.6">
<path d="M386.63 147.521C393.23 138.664 405.761 136.835 414.618 143.435L427.591 153.103L418.123 165.809C411.522 174.666 413.352 187.196 422.209 193.796L435.152 203.442L425.679 216.153C419.079 225.01 406.548 226.839 397.692 220.239L387.812 212.876C388.434 212.24 389.023 211.556 389.57 210.823L390.348 209.778L400.082 217.031C407.167 222.312 417.192 220.848 422.472 213.763L429.554 204.259L419.819 197.004C409.19 189.083 406.995 174.047 414.915 163.419L421.994 153.92L412.228 146.642C405.253 141.445 395.43 142.782 390.088 149.583L389.837 149.911L382.881 159.247L381.538 158.246C380.907 157.776 380.256 157.35 379.592 156.965L386.63 147.521ZM377.182 160.199C377.857 160.564 378.514 160.981 379.147 161.453L380.49 162.454L370.896 175.328C365.616 182.413 367.08 192.438 374.165 197.718L387.141 207.388L386.363 208.432C385.813 209.17 385.211 209.844 384.568 210.459L371.775 200.925C362.918 194.325 361.089 181.795 367.689 172.938L377.182 160.199Z" fill="url(#paint1_linear_2232_34990)"/>
</g>
<g opacity="0.6">
<path d="M396.63 97.521C403.23 88.6644 415.761 86.8348 424.618 93.435L437.591 103.103L428.123 115.809L427.82 116.227C421.582 125.056 423.49 137.299 432.209 143.796L445.152 153.442L435.679 166.153L435.365 166.563C428.794 174.93 416.799 176.681 408.11 170.542L407.692 170.239L397.812 162.876C398.434 162.24 399.023 161.556 399.57 160.823L400.348 159.778L410.082 167.031C417.167 172.312 427.192 170.848 432.472 163.763L439.554 154.259L429.819 147.004C419.19 139.083 416.995 124.047 424.915 113.419L431.994 103.92L422.228 96.6424C415.253 91.4448 405.43 92.7815 400.088 99.5828L399.837 99.9111L392.881 109.247L391.538 108.246C390.907 107.776 390.256 107.35 389.592 106.965L396.63 97.521ZM387.182 110.199C387.857 110.564 388.514 110.981 389.147 111.453L390.49 112.454L380.896 125.328C375.616 132.413 377.08 142.438 384.165 147.718L397.141 157.388L396.363 158.432C395.813 159.17 395.211 159.844 394.568 160.459L381.775 150.925C372.918 144.325 371.089 131.795 377.689 122.938L387.182 110.199Z" fill="url(#paint2_linear_2232_34990)"/>
</g>
<g opacity="0.6">
<path d="M416.944 97.1108C423.622 88.6094 435.899 86.9381 444.618 93.435L457.591 103.103L448.123 115.809L447.82 116.227C441.582 125.056 443.49 137.299 452.209 143.796L465.152 153.442L455.679 166.153L455.365 166.563C448.688 175.065 436.41 176.736 427.692 170.239L417.812 162.876C418.317 162.36 418.8 161.813 419.256 161.233L419.57 160.823L420.348 159.778L430.082 167.031C437.167 172.312 447.192 170.848 452.472 163.763L459.554 154.259L449.819 147.004C439.19 139.083 436.995 124.047 444.915 113.419L451.994 103.92L442.228 96.6424C435.253 91.4448 425.43 92.7815 420.088 99.5828L419.837 99.9111L412.881 109.247L411.538 108.246C410.907 107.776 410.256 107.35 409.592 106.965L416.63 97.521L416.944 97.1108ZM407.182 110.199C407.857 110.564 408.514 110.981 409.147 111.453L410.49 112.454L400.896 125.328C395.616 132.413 397.08 142.438 404.165 147.718L417.141 157.388L416.363 158.432C415.813 159.17 415.211 159.844 414.568 160.459L401.775 150.925C393.057 144.428 391.148 132.185 397.386 123.356L397.689 122.938L407.182 110.199Z" fill="url(#paint3_linear_2232_34990)"/>
</g>
<g opacity="0.6">
<path d="M386.944 37.1108C393.622 28.6094 405.899 26.9381 414.618 33.435L427.591 43.103L418.123 55.8087L417.82 56.2271C411.582 65.0562 413.49 77.2993 422.209 83.7963L435.152 93.4416L425.679 106.153L425.365 106.563C418.794 114.93 406.799 116.681 398.11 110.542L397.692 110.239L387.812 102.876C388.317 102.36 388.8 101.813 389.256 101.233L389.57 100.823L390.348 99.778L400.082 107.031C407.167 112.312 417.192 110.848 422.472 103.763L429.554 94.2588L419.819 87.0037C409.19 79.0834 406.995 64.0468 414.915 53.4186L421.994 43.9202L412.228 36.6424C405.142 31.3623 395.118 32.8258 389.837 39.9111L382.881 49.2466L381.538 48.2458C380.907 47.7759 380.256 47.3503 379.592 46.9653L386.63 37.521L386.944 37.1108ZM377.182 50.1993C377.857 50.5642 378.514 50.9813 379.147 51.4532L380.49 52.454L370.896 65.328C365.616 72.4135 367.08 82.4379 374.165 87.7181L387.141 97.3878L386.363 98.4324C385.813 99.1696 385.211 99.8445 384.568 100.459L371.775 90.9254C363.057 84.4284 361.148 72.1853 367.386 63.3562L367.689 62.9378L377.182 50.1993Z" fill="url(#paint4_linear_2232_34990)"/>
</g>
<g opacity="0.6">
<path d="M406.63 37.521C413.23 28.6644 425.761 26.8348 434.618 33.435L447.591 43.103L438.123 55.8087C431.522 64.6656 433.352 77.1961 442.209 83.7963L455.152 93.4416L445.679 106.153C439.079 115.01 426.548 116.839 417.692 110.239L407.812 102.876C408.434 102.24 409.023 101.556 409.57 100.823L410.348 99.778L420.082 107.031C427.167 112.312 437.192 110.848 442.472 103.763L449.554 94.2588L439.819 87.0037C429.19 79.0834 426.995 64.0468 434.915 53.4186L441.994 43.9202L432.228 36.6424C425.253 31.4448 415.43 32.7815 410.088 39.5828L409.837 39.9111L402.881 49.2466L401.538 48.2458C400.907 47.7759 400.256 47.3503 399.592 46.9653L406.63 37.521ZM397.182 50.1993C397.857 50.5642 398.514 50.9813 399.147 51.4532L400.49 52.454L390.896 65.328C385.616 72.4135 387.08 82.4379 394.165 87.7181L407.141 97.3878L406.363 98.4324C405.813 99.1696 405.211 99.8445 404.568 100.459L391.775 90.9254C382.918 84.3252 381.089 71.7947 387.689 62.9378L397.182 50.1993Z" fill="url(#paint5_linear_2232_34990)"/>
</g>
</g>
</g>
<defs>
<filter id="filter0_d_2232_34990" x="0" y="0" width="421" height="193" filterUnits="userSpaceOnUse" color-interpolation-filters="sRGB">
<feFlood flood-opacity="0" result="BackgroundImageFix"/>
<feColorMatrix in="SourceAlpha" type="matrix" values="0 0 0 0 0 0 0 0 0 0 0 0 0 0 0 0 0 0 127 0" result="hardAlpha"/>
<feOffset dy="4"/>
<feGaussianBlur stdDeviation="7"/>
<feComposite in2="hardAlpha" operator="out"/>
<feColorMatrix type="matrix" values="0 0 0 0 0 0 0 0 0 0 0 0 0 0 0 0 0 0 0.1 0"/>
<feBlend mode="normal" in2="BackgroundImageFix" result="effect1_dropShadow_2232_34990"/>
<feBlend mode="normal" in="SourceGraphic" in2="effect1_dropShadow_2232_34990" result="shape"/>
</filter>
<linearGradient id="paint0_linear_2232_34990" x1="364.733" y1="210.582" x2="407.576" y2="153.092" gradientUnits="userSpaceOnUse">
<stop stop-color="#1C4F60"/>
<stop offset="1" stop-color="white" stop-opacity="0.3"/>
</linearGradient>
<linearGradient id="paint1_linear_2232_34990" x1="384.733" y1="210.582" x2="427.576" y2="153.092" gradientUnits="userSpaceOnUse">
<stop stop-color="#1C4F60"/>
<stop offset="1" stop-color="white" stop-opacity="0.3"/>
</linearGradient>
<linearGradient id="paint2_linear_2232_34990" x1="394.733" y1="160.582" x2="437.576" y2="103.092" gradientUnits="userSpaceOnUse">
<stop stop-color="#1C4F60"/>
<stop offset="1" stop-color="white" stop-opacity="0.3"/>
</linearGradient>
<linearGradient id="paint3_linear_2232_34990" x1="414.733" y1="160.582" x2="457.576" y2="103.092" gradientUnits="userSpaceOnUse">
<stop stop-color="#1C4F60"/>
<stop offset="1" stop-color="white" stop-opacity="0.3"/>
</linearGradient>
<linearGradient id="paint4_linear_2232_34990" x1="384.733" y1="100.582" x2="427.576" y2="43.0917" gradientUnits="userSpaceOnUse">
<stop stop-color="#1C4F60"/>
<stop offset="1" stop-color="white" stop-opacity="0.3"/>
</linearGradient>
<linearGradient id="paint5_linear_2232_34990" x1="404.733" y1="100.582" x2="447.576" y2="43.0917" gradientUnits="userSpaceOnUse">
<stop stop-color="#1C4F60"/>
<stop offset="1" stop-color="white" stop-opacity="0.3"/>
</linearGradient>
<clipPath id="clip0_2232_34990">
<rect x="14" y="10" width="393" height="165" rx="32" fill="white"/>
</clipPath>
</defs>
</svg>
